<svg height="605pt" viewBox="-49 -19 605 605.33486" width="605pt" xmlns="http://www.w3.org/2000/svg"><path d="m493.644531 406.683594h-48.679687v-46.523438c-.046875-36.707031-27.089844-67.792968-63.441406-72.921875 31.351562-5.304687 53.410156-33.738281 50.746093-65.421875-2.65625-31.683594-29.152343-56.039062-60.945312-56.039062-31.789063 0-58.285157 24.355468-60.949219 56.039062-2.65625 31.683594 19.402344 60.117188 50.75 65.421875-36.351562 5.128907-63.390625 36.214844-63.445312 72.921875v46.523438h-58.023438v-12.320313c-.03125-23.265625-16.5-43.269531-39.335938-47.765625v-10.011718c0-6.207032-5.023437-11.234376-11.230468-11.234376-6.203125 0-11.234375 5.027344-11.234375 11.234376v10.914062c-21.003907 5.902344-35.53125 25.046875-35.558594 46.863281v12.320313h-132.949219c-6.199218 0-11.230468 5.027344-11.230468 11.234375v86.125c0 .175781.019531.347656.027343.523437.003907.175782-.027343.34375-.027343.527344v51.175781c0 6.199219 5.03125 11.230469 11.230468 11.230469 6.207032 0 11.234375-5.03125 11.234375-11.230469v-40.992187h461.828125v40.992187c0 6.199219 5.035156 11.230469 11.234375 11.230469 6.207031 0 11.234375-5.03125 11.234375-11.230469v-51.175781c0-.183594-.015625-.351562-.023437-.527344-.003907-.175781.023437-.347656.023437-.523437v-86.125c0-6.207031-5.027344-11.234375-11.234375-11.234375zm-161.015625-179.738282c0-21.371093 17.324219-38.691406 38.695313-38.691406 21.371093 0 38.691406 17.320313 38.691406 38.691406 0 21.371094-17.320313 38.695313-38.691406 38.695313-21.363281-.023437-38.671875-17.332031-38.695313-38.695313zm-12.480468 133.214844c0-28.261718 22.914062-51.175781 51.175781-51.175781 28.265625 0 51.175781 22.914063 51.175781 51.175781v46.523438h-102.351562zm-155.386719 34.199219c0-14.476563 11.738281-26.210937 26.214843-26.210937 14.472657 0 26.210938 11.734374 26.210938 26.210937v12.320313h-52.425781zm-144.179688 34.792969h461.828125v63.65625h-461.828125zm0 0"/><path d="m402.527344 336.585938h-14.976563c-6.203125 0-11.234375 5.027343-11.234375 11.234374 0 6.203126 5.03125 11.234376 11.234375 11.234376h14.976563c6.207031 0 11.234375-5.03125 11.234375-11.234376 0-6.207031-5.027344-11.234374-11.234375-11.234374zm0 0"/><path d="m88.863281 147.863281c41.292969 0 74.890625-33.164062 74.890625-73.933593 0-40.765626-33.597656-73.929688-74.890625-73.929688-22.945312-.0976562-44.667969 10.332031-58.933593 28.300781-22.90625 28.734375-20.960938 69.996094 4.539062 96.449219 14.183594 14.859375 33.855469 23.214844 54.394531 23.113281zm-43.308593-107.128906c10.496093-13.191406 26.453124-20.84375 43.308593-20.761719 30.28125 0 54.917969 24.203125 54.917969 53.957032 0 29.753906-24.636719 53.957031-54.917969 53.957031-15.097656.085937-29.550781-6.046875-39.980469-16.957031-18.582031-19.246094-20.007812-49.285157-3.328124-70.195313zm0 0"/><path d="m77.742188 88.003906 18.0625 11.398438c3.019531 1.949218 6.851562 2.125 10.035156.464844 3.183594-1.664063 5.226562-4.90625 5.359375-8.496094.125-3.585938-1.679688-6.964844-4.734375-8.855469l-13.410156-8.460937v-29.941407c0-5.515625-4.46875-9.988281-9.984376-9.988281-5.515624 0-9.984374 4.472656-9.984374 9.988281v35.445313c0 3.425781 1.757812 6.617187 4.65625 8.445312zm0 0"/><path d="m281.453125 147.863281c41.296875 0 74.890625-33.164062 74.890625-73.933593 0-40.765626-33.59375-73.929688-74.890625-73.929688-22.941406-.09375-44.65625 10.335938-58.925781 28.300781-22.902344 28.734375-20.960938 69.996094 4.539062 96.457031 14.183594 14.851563 33.855469 23.207032 54.386719 23.105469zm-43.296875-107.128906c10.488281-13.191406 26.445312-20.84375 43.296875-20.761719 30.285156 0 54.921875 24.203125 54.921875 53.957032 0 29.753906-24.636719 53.960937-54.921875 53.960937-15.089844.082031-29.546875-6.050781-39.96875-16.960937-18.582031-19.242188-20.007813-49.28125-3.328125-70.191407zm0 0"/><path d="m129.785156 178.082031c-22.90625 28.738281-20.960937 69.996094 4.539063 96.453125 14.183593 14.855469 33.855469 23.210938 54.394531 23.109375 41.292969 0 74.890625-33.164062 74.890625-73.929687s-33.597656-73.933594-74.890625-73.933594c-22.945312-.09375-44.667969 10.332031-58.933594 28.300781zm58.933594-8.328125c30.28125 0 54.917969 24.203125 54.917969 53.960938 0 29.75-24.636719 53.953125-54.917969 53.953125-15.089844.089843-29.554688-6.050781-39.976562-16.957031-18.582032-19.246094-20.003907-49.285157-3.324219-70.195313 10.484375-13.191406 26.445312-20.84375 43.300781-20.761719zm0 0"/><path d="m258.441406 108.5625c4.585938 3.058594 10.789063 1.820312 13.847656-2.769531l14.230469-21.34375h21.144531c5.519532 0 9.988282-4.472657 9.988282-9.988281 0-5.511719-4.46875-9.984376-9.988282-9.984376h-23.328124c-4.207032-1.265624-8.746094.367188-11.191407 4.023438l-17.472656 26.210938c-3.058594 4.589843-1.820313 10.789062 2.769531 13.851562zm0 0"/><path d="m166.621094 234.234375h14.976562v16.226563c0 5.515624 4.472656 9.988281 9.988282 9.988281 5.519531 0 9.984374-4.472657 9.984374-9.988281v-26.210938c-1.425781-5.769531-6.542968-9.859375-12.480468-9.984375h-22.46875c-5.515625 0-9.984375 4.46875-9.984375 9.984375s4.46875 9.984375 9.984375 9.984375zm0 0"/></svg>