<?xml version="1.0"?>
<svg xmlns="http://www.w3.org/2000/svg" viewBox="0 0 64 64" width="512" height="512"><g id="Contact"><path d="M61.707,26.293,49,13.586V7a5.006,5.006,0,0,0-5-5H20a5.006,5.006,0,0,0-5,5v6.586L2.293,26.293A1,1,0,0,0,2,27V59a3,3,0,0,0,3,3H59a3,3,0,0,0,3-3V27A1,1,0,0,0,61.707,26.293ZM59.586,27l-9,9H49V16.414ZM27,4H37V5a1,1,0,0,1-1,1H28a1,1,0,0,1-1-1ZM20,4h5V5a3,3,0,0,0,3,3h8a3,3,0,0,0,3-3V4h5a3,3,0,0,1,3,3V36H17V7A3,3,0,0,1,20,4ZM15,36H13.414l-9-9L15,16.414ZM59,60H5a1,1,0,0,1-1-1V29.414l8.293,8.293A1,1,0,0,0,13,38H51a1,1,0,0,0,.707-.293L60,29.414V59A1,1,0,0,1,59,60Z"/><path d="M24.343,25,30,30.657a6.005,6.005,0,0,0,8.485,0,2,2,0,0,0,2.828,0l1.415-1.414a1,1,0,0,0,0-1.414l-5.657-5.657a1,1,0,0,0-1.414,0l-1.414,1.414a2,2,0,0,0,0,2.828,1,1,0,0,1-1.415,0l-4.242-4.242a1,1,0,0,1,0-1.415,2,2,0,0,0,2.828,0l1.414-1.414a1,1,0,0,0,0-1.414l-5.657-5.657a1.029,1.029,0,0,0-1.414,0l-1.413,1.414a2,2,0,0,0,0,2.829A6.007,6.007,0,0,0,24.343,25Zm12.021-.707,4.243,4.243-.707.708L35.657,25Zm-9.9-9.9,4.244,4.243L30,19.344,25.757,15.1Zm.708,4.949a3,3,0,0,0,0,4.243l4.242,4.242a3,3,0,0,0,4.243,0l1.414,1.415a4.006,4.006,0,0,1-5.657,0l-5.657-5.657a4.006,4.006,0,0,1,0-5.657Z"/></g></svg>
