<?xml version="1.0" encoding="iso-8859-1"?>
<!-- Generator: Adobe Illustrator 19.0.0, SVG Export Plug-In . SVG Version: 6.00 Build 0)  -->
<svg version="1.1" id="Capa_1" xmlns="http://www.w3.org/2000/svg" xmlns:xlink="http://www.w3.org/1999/xlink" x="0px" y="0px"
	 viewBox="0 0 512.003 512.003" style="enable-background:new 0 0 512.003 512.003;" xml:space="preserve">
<g>
	<g>
		<path d="M365.542,366.127v-71.792H146.459v71.792H27.396v128.874h457.208V366.127H365.542z M146.459,465.001H57.396v-68.874
			h89.063V465.001z M335.542,465.001H176.459V324.335h159.083V465.001z M454.604,465.001h-89.063v-68.874h89.063V465.001z"/>
	</g>
</g>
<g>
	<g>
		<path d="M392.905,65.764h-85.333V17.001H204.429v48.762h-85.333v188.476h273.81L392.905,65.764L392.905,65.764z M234.429,47.001
			h43.143v18.762h-43.143V47.001z M362.905,224.239h-213.81V95.764h213.81V224.239z"/>
	</g>
</g>
<g>
	<g>
		<rect y="145.001" width="60.953" height="30"/>
	</g>
</g>
<g>
	<g>
		<rect x="27.668" y="70.977" transform="matrix(0.5547 -0.8321 0.8321 0.5547 -58.3436 76.8978)" width="30.001" height="43.956"/>
	</g>
</g>
<g>
	<g>
		
			<rect x="20.676" y="211.295" transform="matrix(0.8321 -0.5547 0.5547 0.8321 -118.3583 61.6621)" width="43.956" height="30.001"/>
	</g>
</g>
<g>
	<g>
		<rect x="451.05" y="145.001" width="60.953" height="30"/>
	</g>
</g>
<g>
	<g>
		
			<rect x="447.353" y="77.971" transform="matrix(0.8321 -0.5547 0.5547 0.8321 27.2475 275.9406)" width="43.956" height="30.001"/>
	</g>
</g>
<g>
	<g>
		
			<rect x="454.307" y="204.286" transform="matrix(0.5547 -0.8321 0.8321 0.5547 20.7268 491.2558)" width="30.001" height="43.956"/>
	</g>
</g>
<g>
	<g>
		<polygon points="231.971,347.421 231.971,371.449 248.17,371.449 248.17,441.916 280.03,441.916 280.03,347.421 		"/>
	</g>
</g>
<g>
</g>
<g>
</g>
<g>
</g>
<g>
</g>
<g>
</g>
<g>
</g>
<g>
</g>
<g>
</g>
<g>
</g>
<g>
</g>
<g>
</g>
<g>
</g>
<g>
</g>
<g>
</g>
<g>
</g>
</svg>
