<svg xmlns="http://www.w3.org/2000/svg" width="188.478" height="100.017" viewBox="0 0 188.478 100.017"><defs><style>.a{fill:#e87b1e;}.a,.b,.d,.e,.g,.j{fill-rule:evenodd;}.b{fill:#175f9f;}.c{fill:#de672e;}.d,.h{fill:#0097db;}.e{fill:#6d6f71;}.f{fill:#ebcc89;}.g{fill:#d1d3d4;}.i{fill:#939598;}.j{fill:#fff;}</style></defs><path class="a" d="M69.989,328.474H58.072L47.662,348.53H62.14v-7.267h7.849Z" transform="translate(-12.963 -328.474)"/><path class="b" d="M54.768,330.958l-2.717,5.233H68.432v-5.233Z" transform="translate(-11.406 -327.592)"/><g transform="translate(73.28 30.155)"><path class="a" d="M76.14,350.732h68.58v32.682H124.456V382.4h-4.537v1.018H112.7V382.4h-4.537v1.018h-7.218V382.4H96.4v1.018H76.14Z" transform="translate(-76.14 -350.732)"/><rect class="c" width="1.605" height="29.91" transform="translate(2.398 0.93)"/><rect class="c" width="1.604" height="29.91" transform="translate(5.507 0.93)"/><rect class="c" width="1.605" height="29.91" transform="translate(8.615 0.93)"/><rect class="c" width="1.605" height="29.91" transform="translate(11.724 0.93)"/><rect class="c" width="1.605" height="29.91" transform="translate(14.833 0.93)"/><rect class="c" width="1.605" height="29.91" transform="translate(17.942 0.93)"/><rect class="c" width="1.604" height="29.91" transform="translate(21.051 0.93)"/><rect class="c" width="1.605" height="29.91" transform="translate(24.16 0.93)"/><rect class="c" width="1.605" height="29.91" transform="translate(27.27 0.93)"/><rect class="c" width="1.605" height="29.91" transform="translate(30.378 0.93)"/><rect class="c" width="1.605" height="29.91" transform="translate(33.488 0.93)"/><rect class="c" width="1.605" height="29.91" transform="translate(36.596 0.93)"/><rect class="c" width="1.605" height="29.91" transform="translate(39.705 0.93)"/><rect class="c" width="1.605" height="29.91" transform="translate(42.815 0.93)"/><rect class="c" width="1.604" height="29.91" transform="translate(45.924 0.93)"/><rect class="c" width="1.605" height="29.91" transform="translate(49.033 0.93)"/><rect class="c" width="1.605" height="29.91" transform="translate(52.142 0.93)"/><rect class="c" width="1.605" height="29.91" transform="translate(55.25 0.93)"/><rect class="c" width="1.605" height="29.91" transform="translate(58.36 0.93)"/><rect class="c" width="1.603" height="29.91" transform="translate(61.469 0.93)"/><rect class="c" width="1.605" height="29.91" transform="translate(64.578 0.93)"/></g><path class="d" d="M138.94,370.925h71.588l-3.066,6.158c-13.349,4.792-33.046,20.446-42.837,36.347H41.795L22.05,381.551V376.3H135.167a3.785,3.785,0,0,0,3.773-3.773Z" transform="translate(-22.05 -313.413)"/><path class="e" d="M169.345,394.318a79.1,79.1,0,0,0-8.137,10.813H38.377l-6.7-10.812Z" transform="translate(-18.633 -305.113)"/><path class="a" d="M139.217,376.068c1.107,0,1.729,1.134,1.391,2.531a3.142,3.142,0,0,1-2.616,2.529c-1.106,0-1.727-1.133-1.391-2.529A3.142,3.142,0,0,1,139.217,376.068Z" transform="translate(18.558 -311.588)"/><rect class="f" width="31.683" height="42.834" transform="translate(17.493 20.055)"/><path class="g" d="M82.134,388.014h-34.3v-33.24H62.078v-16.86H82.134Z" transform="translate(-12.902 -325.124)"/><rect class="h" width="15.986" height="5.394" transform="translate(53.247 18.312)"/><rect class="i" width="2.143" height="3.002" transform="translate(40.773 34.067)"/><rect class="i" width="2.143" height="3.002" transform="translate(40.773 40.642)"/><rect class="i" width="2.143" height="3.003" transform="translate(40.773 47.216)"/><rect class="i" width="2.145" height="3.002" transform="translate(46.775 34.067)"/><rect class="i" width="2.145" height="3.002" transform="translate(46.775 40.642)"/><rect class="i" width="2.145" height="3.003" transform="translate(46.775 47.216)"/><rect class="i" width="2.145" height="3.002" transform="translate(52.777 34.067)"/><rect class="i" width="2.145" height="3.002" transform="translate(52.777 40.642)"/><rect class="i" width="2.145" height="3.003" transform="translate(52.777 47.216)"/><rect class="i" width="2.144" height="3.002" transform="translate(58.782 34.067)"/><rect class="i" width="2.144" height="3.002" transform="translate(58.782 40.642)"/><rect class="i" width="2.144" height="3.003" transform="translate(58.782 47.216)"/><path class="j" d="M51.8,387.308a3.455,3.455,0,1,0-3.456-3.453A3.46,3.46,0,0,0,51.8,387.308Z" transform="translate(-12.72 -310.051)"/><path class="j" d="M62.418,387.308a3.455,3.455,0,1,0-3.455-3.453A3.46,3.46,0,0,0,62.418,387.308Z" transform="translate(-8.954 -310.051)"/><path class="j" d="M73.03,387.308a3.455,3.455,0,1,0-3.453-3.453A3.461,3.461,0,0,0,73.03,387.308Z" transform="translate(-5.188 -310.051)"/><path class="j" d="M83.646,387.308a3.455,3.455,0,1,0-3.455-3.453A3.461,3.461,0,0,0,83.646,387.308Z" transform="translate(-1.423 -310.051)"/><path class="j" d="M94.259,387.308a3.455,3.455,0,1,0-3.453-3.453A3.46,3.46,0,0,0,94.259,387.308Z" transform="translate(2.343 -310.051)"/><path class="j" d="M104.874,387.308a3.455,3.455,0,1,0-3.455-3.453A3.461,3.461,0,0,0,104.874,387.308Z" transform="translate(6.109 -310.051)"/><path class="j" d="M115.489,387.308a3.455,3.455,0,1,0-3.455-3.453A3.461,3.461,0,0,0,115.489,387.308Z" transform="translate(9.875 -310.051)"/></svg>