<svg xmlns="http://www.w3.org/2000/svg" width="167.912" height="99.91" viewBox="0 0 167.912 99.91"><defs><style>.a{fill:#6d6f71;}.a,.b,.c,.d,.e,.f,.g,.h,.i{fill-rule:evenodd;}.b{fill:#58595b;}.c{fill:#0097db;}.d{fill:#175f9f;}.e{fill:#fff;}.f{fill:#939598;}.g{fill:#414142;}.h{fill:#efc14e;}.i{fill:#ebcc89;}</style></defs><path class="a" d="M347.386,403.657h83.136l5.4-.919.023-18.334a1.9,1.9,0,0,0-1.68-1.693H347.386Z" transform="translate(-285.765 -321.361)"/><path class="b" d="M304.188,384.731l5.087-4.608,1.111,24.639-2.481.553-1.888-.553-1.769-4.988Z" transform="translate(-304.188 -322.465)"/><path class="c" d="M365.3,350.036l-26.071-2.491c-2.926-.281-5.6.258-8.8,2.914-10.276,8.523-26.479,26.9-24.879,54.631L306.04,415H328.8l36.475-1.09Z" transform="translate(-303.655 -336.387)"/><path class="d" d="M307.354,378.579a61.686,61.686,0,0,0-1.893,13.443l.006.014,45.715-18.112,3.576-9.368-43.71,15.483-3.683-1.475Z" transform="translate(-303.644 -329.103)"/><path class="e" d="M309.378,386.472c2.683-12.871,11.1-26.706,22.458-35.057a7.423,7.423,0,0,1,5.7-1.9l22.762,2.175-.218,16.884-.051.017-5.265-1.19-1.675,3.586Z" transform="translate(-301.974 -335.535)"/><path class="e" d="M318.255,360.767a55.1,55.1,0,0,1,9.8-9.352,7.424,7.424,0,0,1,5.7-1.9l22.762,2.175-.164,12.573C352.89,355.878,334.831,356.666,318.255,360.767Z" transform="translate(-298.188 -335.535)"/><path class="f" d="M425.983,385.53l6.657.073-.011.074a64.653,64.653,0,0,1,10.195,1.143,8.9,8.9,0,0,1,4.364,2.5c4.512,4.372,6.184,9.75,6.443,15.8.006.147.01.291.017.436.011.429-2.151.71-5.526.886l-38.1.037H307.105l-1.245-3.68h18.1l3.976-11.218a6.117,6.117,0,0,1,3.235-3.75L363.4,376.207c.931-.3,1.7.009,1.7,1.237v19.165l35.244-2.408C407.8,388.7,413.728,385.53,425.983,385.53Z" transform="translate(-303.474 -324.181)"/><path class="g" d="M391.239,386.048c5.923-1.456,11.783-1.047,17.506.031a7.362,7.362,0,0,1,3.613,2.107c3.974,3.918,5.286,8.791,5.361,14.285a6.976,6.976,0,0,1-1.742.165H381.44c-.053-4.71,1.663-10.627,5.13-14.091A8.675,8.675,0,0,1,391.239,386.048Z" transform="translate(-271.242 -320.34)"/><path class="a" d="M399.183,419.422A16.187,16.187,0,1,0,383,403.234,16.219,16.219,0,0,0,399.183,419.422Z" transform="translate(-270.578 -319.512)"/><path class="h" d="M397.124,410.477a9.3,9.3,0,1,0-9.3-9.3A9.319,9.319,0,0,0,397.124,410.477Z" transform="translate(-268.519 -317.453)"/><path class="i" d="M355.4,395.324H440.13l.036-55.621H355.4Z" transform="translate(-282.346 -339.703)"/><path class="c" d="M347.386,380.127h.026V343.4h3.465v36.724h102.8V399.47H347.386Z" transform="translate(-285.765 -338.125)"/><path class="g" d="M320.351,404.322h38.537c.392-7.478-2.282-14.385-5.616-19.747a6.418,6.418,0,0,0-5.965-3.415l-20.03,7.185a5.088,5.088,0,0,0-2.632,3.212Z" transform="translate(-297.294 -322.026)"/><path class="a" d="M339.4,418.871a16.188,16.188,0,1,0-16.188-16.189A16.221,16.221,0,0,0,339.4,418.871Z" transform="translate(-296.075 -319.748)"/><path class="h" d="M337.339,409.925a9.3,9.3,0,1,0-9.3-9.3A9.32,9.32,0,0,0,337.339,409.925Z" transform="translate(-294.015 -317.689)"/></svg>