<svg xmlns="http://www.w3.org/2000/svg" width="179.682" height="100.488" viewBox="0 0 179.682 100.488"><defs><style>.a{fill:#ebcc89;}.a,.c,.d,.e,.f,.h,.i,.j,.k{fill-rule:evenodd;}.b{fill:#d8b05d;}.c{fill:#a78b6b;}.d{fill:#6d6f71;}.e{fill:#efc14e;}.f{fill:#58595b;}.g{fill:#808285;}.h{fill:#0097db;}.i{fill:#175f9f;}.j{fill:#414142;}.k{fill:#e87b1e;}</style></defs><g transform="translate(0 34.009)"><path class="a" d="M140.319,248.242H196.8l.024-48.026H140.319Z" transform="translate(-140.319 -200.216)"/><rect class="b" width="13.274" height="48.026" transform="translate(43.233)"/><path class="c" d="M156.2,200.216h6.135v9.2l-.974.222-1.068-.764-1.57.934-1.185-.913-1.338.791Z" transform="translate(-138.067 -200.216)"/><path class="c" d="M182.631,200.216h3.116v9.2l-.5.222-.541-.764-.8.934-.6-.913-.679.791Z" transform="translate(-134.318 -200.216)"/></g><path class="d" d="M221.8,207.947l4.259,4.616-1.6,15.609a22.441,22.441,0,0,0-7.189-3.1c.9-3.786,1.881-7.678,3.08-12.016C220.8,211.431,221.285,209.732,221.8,207.947Z" transform="translate(-129.404 -165.111)"/><path class="d" d="M265.236,217.8H242.511a4.338,4.338,0,0,0-4.325,4.326v5.643h12.493l.1-.066Z" transform="translate(-126.438 -163.713)"/><path class="e" d="M274.086,211.141h17.936v2.35l-17.6-.017-.165-1.129Z" transform="translate(-121.345 -164.658)"/><path class="f" d="M206.358,224.417H207.7a2.125,2.125,0,0,1,2.119,2.118v24.342A2.125,2.125,0,0,1,207.7,253h-1.338v7.1h-9.8V172.849h-.88v-2.417h8.7v1.051h1.973Z" transform="translate(-132.466 -170.432)"/><path class="g" d="M214.031,228.839c.916-3.888,1.938-7.912,3.194-12.453,2-7.236,4.574-15.706,8.262-26.938.1-.321.212-.639.331-.955a14.268,14.268,0,0,1,.983-2.064,16.706,16.706,0,0,1,1.581-2.279,17.984,17.984,0,0,1,13.8-6.638l35.455.292-.03,3.721h0l5.167,35.589.164,1.129h-.186L256.61,235.989l-6.362,10.133L235.1,249.907a22.491,22.491,0,0,0-2.072-8.061h8.583v-8.357h12.493l.1-.066L278.922,216.5l-5.082-35-31.68-.26a14.223,14.223,0,0,0-10.9,5.281,12.949,12.949,0,0,0-1.233,1.768c-.174.3-.331.606-.469.909a16.347,16.347,0,0,0-.641,1.764c-3.625,11.054-6.153,19.368-8.1,26.422-1.2,4.337-2.186,8.229-3.082,12.014A22.574,22.574,0,0,0,214.031,228.839Z" transform="translate(-129.864 -169.428)"/><path class="h" d="M278.26,213.183l26.749.029v4.36c-.826.359-1.251.507-2.086.843a1.881,1.881,0,0,0-1.031,1.8c-.009.829,0,1.924,0,2.774a1.918,1.918,0,0,0,1.117,1.72l2,.981v7.143H289.8l-18.525,1.846-25.527,6.383,6.362-10.133Z" transform="translate(-125.365 -164.368)"/><path class="i" d="M266.771,252.728h44.573V231.523H296.1l-18.525,1.846L236.9,243.538A22.628,22.628,0,0,0,201.353,226.5l12.969,18.542,20.434,7.682h32.015Z" transform="translate(-131.662 -163.058)"/><path class="j" d="M271.994,230.957c6.246-1.819,12.424-1.309,18.458.04a7.573,7.573,0,0,1,3.81,2.633c4.192,4.893,5.576,10.981,5.654,17.842a6.121,6.121,0,0,1-1.837.211H261.66c-.053-5.886,1.755-13.278,5.41-17.607A8.8,8.8,0,0,1,271.994,230.957Z" transform="translate(-123.108 -162.014)"/><path class="d" d="M280.244,262.114a14.8,14.8,0,1,0-14.8-14.8A14.827,14.827,0,0,0,280.244,262.114Z" transform="translate(-122.571 -161.626)"/><path class="e" d="M279.462,255.036a8.5,8.5,0,1,0-8.5-8.5A8.52,8.52,0,0,0,279.462,255.036Z" transform="translate(-121.789 -160.844)"/><path class="k" d="M197.973,203.259h3.488v46.315a2.532,2.532,0,0,1-2.456,1.7H166.2l-10.282-1.479-.147-2.011h42.207Z" transform="translate(-138.128 -165.776)"/><path class="h" d="M257.835,216.848c-2.243-1.609,2.6-7.959.86-15.708-.606-2.7-.138-3.923,1.9-4.186a3.185,3.185,0,0,1,2.013.118c5.405,2.2-.9,15.1-.345,23.7H242.271c-.095,0-.188,0-.282.01-3.569-4.2-2.26-5.226,1.341-5.145C246.116,215.7,254.289,216.615,257.835,216.848Z" transform="translate(-126.197 -166.685)"/><path class="j" d="M214.5,244.743l-14.391-14.157a20.186,20.186,0,0,1,33.286,21.26Z" transform="translate(-131.839 -162.755)"/><path class="d" d="M214.91,262.124a17.692,17.692,0,1,0-17.693-17.691A17.726,17.726,0,0,0,214.91,262.124Z" transform="translate(-132.249 -162.445)"/><path class="e" d="M213.975,253.663A10.166,10.166,0,1,0,203.809,243.5,10.184,10.184,0,0,0,213.975,253.663Z" transform="translate(-131.314 -161.51)"/></svg>